<svg xmlns="http://www.w3.org/2000/svg" width="118" height="24" viewBox="0 0 118 24">
  <path fill="#1A75BC" d="M26.019965,4.3767535 C24.8164513,3.94388778 23.4685162,3.82364729 21.9761592,4.01603207 C20.4838022,4.23246493 19.2562184,4.88176353 18.3174778,5.96392786 C17.7397911,6.63727454 17.3065263,7.43086172 17.0417532,8.41683366 C16.7769803,9.40280561 16.6325586,10.3887776 16.6325586,11.3747495 C16.6325586,12.5771543 16.8010506,13.7314629 17.1139641,14.8376753 C17.4268775,15.9679359 17.980494,16.8336674 18.7507426,17.4829659 C19.4728508,18.1563126 20.459732,18.6132264 21.6873159,18.8777555 C22.9148998,19.1422846 24.1184134,19.1182365 25.3219271,18.7815632 C26.6698624,18.4929859 27.777095,17.747495 28.6676951,16.5450901 C29.0768897,15.9679359 29.3898033,15.246493 29.6545763,14.4048096 C29.895279,13.5631262 30.0397007,12.5531062 30.0397007,11.3987976 C30.0397007,9.78757515 29.7267871,8.39278557 29.1009599,7.19038077 C28.4269923,5.86773548 27.416041,4.92985972 26.019965,4.3767535 Z M25.5867002,14.6452906 C25.1534352,15.3186373 24.6479594,15.7274549 24.0943432,15.8717435 C23.5407269,16.0160321 22.9630405,16.0160321 22.4334945,15.8236473 C21.8798781,15.6072144 21.4947537,15.3907816 21.2781213,15.1022044 C20.7245051,14.4288577 20.4115915,13.2985972 20.3393806,11.6392786 C20.2671698,9.97995993 20.6041537,8.72945892 21.3744023,7.88777555 C21.6151051,7.6472946 22.04837,7.40681363 22.577916,7.26252505 C23.1074621,7.11823647 23.6610784,7.11823647 24.2146946,7.28657315 C24.7683108,7.47895791 25.2497163,7.88777555 25.6589109,8.56112225 C26.0681057,9.23446894 26.2847381,10.1963928 26.2847381,11.5190381 C26.2606678,12.9378758 26.019965,13.995992 25.5867002,14.6452906 Z M50.7160651,5.19438877 C49.3681298,4.3527054 47.8998432,3.91983967 46.2871348,3.91983967 C45.4687457,3.96793588 44.6984968,4.08817635 43.9523184,4.28056112 C43.20614,4.49699399 42.5562426,4.83366733 42.0026264,5.29058115 C41.3286587,4.73747495 40.6065504,4.3767535 39.8122315,4.20841683 C38.9938422,4.01603207 38.1995231,3.94388778 37.3570636,3.94388778 C35.7684256,4.01603207 34.3482795,4.4729459 33.0725551,5.31462927 C31.7727603,6.15631262 31.1228629,7.81563126 31.1228629,10.2925852 L31.1228629,18.8056112 L34.9500363,18.8056112 L34.9500363,9.498998 C34.9500363,8.63326654 35.1907391,7.98396793 35.7202851,7.59919839 C36.2498311,7.19038077 36.8034473,6.99799599 37.477415,6.99799599 C38.1513826,6.99799599 38.7290691,7.21442886 39.2586153,7.59919839 C39.7881613,7.98396793 40.0529342,8.63326654 40.0529342,9.498998 L40.0529342,18.8056112 L43.831967,18.8056112 L43.831967,9.498998 C43.831967,8.63326654 44.0967401,7.98396793 44.6262861,7.59919839 C45.1558321,7.19038077 45.7575888,6.99799599 46.4074862,6.99799599 C47.0814539,6.99799599 47.6591404,7.21442886 48.1886865,7.59919839 C48.7182325,7.98396793 48.9830054,8.63326654 48.9830054,9.498998 L48.9830054,16.9298597 C48.9830054,17.4829659 49.1755676,17.9158317 49.4884812,18.2765531 C49.8495353,18.6372745 50.2828003,18.7815632 50.8364165,18.7815632 L52.737968,18.7815632 L52.737968,10.244489 C52.737968,7.74348698 52.0399301,6.03607214 50.7160651,5.19438877 Z M11.6500121,6.99799599 L3.87531395,6.99799599 L3.87531395,-7.10542736e-15 L1.97376238,-7.10542736e-15 C1.4201461,-7.10542736e-15 0.962810919,0.192384769 0.577686551,0.577154309 C0.192562184,0.961923848 7.95807864e-13,1.44288577 7.95807864e-13,1.97194388 L7.95807864e-13,18.8056112 L3.87531395,18.8056112 L3.87531395,10.4128257 L11.6500121,10.4128257 L11.6500121,18.7815632 L15.5975369,18.7815632 L15.5975369,0.0240480962 L11.6500121,0.0240480962 L11.6500121,6.99799599 Z M60.2719635,3.94388778 C58.20192,3.94388778 56.5651414,4.61723447 55.4097684,5.96392786 C54.2784655,7.26252505 53.7248493,9.09018037 53.7248493,11.4228457 C53.7248493,13.8517034 54.3025358,15.751503 55.4819792,17.0501002 C56.6373523,18.3967936 58.2741308,19.0701403 60.3441743,19.0701403 C62.0531636,19.0701403 63.4733099,18.6613227 64.6046126,17.7955912 C65.7359155,17.002004 66.5061642,15.8236473 66.9153589,14.3086172 L64.1713478,14.3086172 C63.7380828,14.3086172 63.401099,14.4048096 63.1603963,14.5731463 C62.9196935,14.7655311 62.7993422,14.8857715 62.7512016,15.006012 L62.4623584,15.2945892 C62.3660772,15.3907816 62.2697962,15.4629259 62.1735151,15.486974 C61.7402501,15.7274549 61.2107041,15.8717435 60.5848771,15.8717435 C59.6461364,15.8717435 58.9240282,15.5831663 58.4426227,15.006012 C57.937147,14.4529058 57.672374,13.6112224 57.6242334,12.4809619 L67.0597804,12.4809619 C67.0838508,12.4088176 67.1079211,12.2645291 67.1079211,12.0961924 L67.1079211,11.49499 C67.1079211,9.09018037 66.5302344,7.21442886 65.350791,5.86773548 C64.1472774,4.59318637 62.438288,3.94388778 60.2719635,3.94388778 Z M57.5760929,10.0761523 C57.6001631,9.13827656 57.8890065,8.39278557 58.3944822,7.88777555 C58.8999579,7.38276553 59.5498554,7.11823647 60.3682445,7.11823647 C61.2347743,7.11823647 61.908742,7.35871744 62.3901475,7.88777555 C62.8234125,8.36873747 63.0881854,9.09018037 63.1603963,10.0761523 L57.5760929,10.0761523 Z M115.3282,4.25651302 C114.389459,4.25651302 113.787702,4.68937875 113.57107,5.55511022 L110.995551,14.501002 L108.034907,4.23246493 L103.84668,4.23246493 L108.949577,18.7094189 C109.19028,19.4789579 109.142139,20.0320641 108.708875,20.3687375 C108.27561,20.729459 107.721993,20.8737474 106.999885,20.8737474 L105.964864,20.8737474 L105.964864,23.8797595 C106.061145,23.8797595 106.205566,23.9038077 106.374058,23.9038077 C106.54255,23.9278557 106.662901,23.9519038 106.783253,24 L107.553502,24 C109.045858,24 110.129021,23.7835672 110.778918,23.3266533 C111.452886,22.8216432 111.982432,21.9559119 112.415697,20.753507 L118,4.18436874 L115.3282,4.25651302 Z M86.5882938,8.65731463 C87.3104019,8.29659319 87.8880886,7.79158317 88.2732129,7.19038077 C88.6824075,6.51703407 88.8749696,5.74749498 88.8749696,4.78557114 C88.8749696,3.29458918 88.3694941,2.11623247 87.3344722,1.22645291 C86.3235209,0.432865731 84.8311639,0.0240480962 82.9055421,0.0240480962 L76.021444,0.0240480962 C75.4678276,0.0240480962 75.0104925,0.216432866 74.6253681,0.601202405 C74.2402437,0.985971943 74.0476816,1.46693387 74.0476816,1.99599198 L74.0476816,18.8296593 L82.6648393,18.8296593 C84.8552341,18.8296593 86.5401533,18.3246493 87.7677372,17.3627255 C88.9231103,16.3527055 89.5248671,14.9338677 89.5248671,13.1062124 C89.5248671,11.9759519 89.2841644,11.0621242 88.8268291,10.3647295 C88.2732129,9.61923848 87.5270345,9.04208417 86.5882938,8.65731463 Z M77.7785739,3.29458918 L82.1593635,3.29458918 C83.2184557,3.29458918 83.9164936,3.43887775 84.3016179,3.72745491 C84.7348827,4.04008016 84.9755855,4.56913828 84.9755855,5.26653306 C84.9755855,5.96392786 84.758953,6.46893788 84.3016179,6.80561123 C83.8683529,7.11823647 83.170315,7.28657315 82.2315744,7.28657315 L77.8026442,7.28657315 L77.8026442,3.29458918 L77.7785739,3.29458918 Z M84.7348827,14.8136273 C84.1812665,15.2224449 83.3869474,15.4148297 82.3759961,15.4148297 L77.7785739,15.4148297 L77.7785739,10.4849699 L82.3278554,10.4849699 C83.4591583,10.4849699 84.2534774,10.6773547 84.7348827,11.0380762 C85.2403585,11.4468938 85.5051315,12.0721443 85.5051315,12.9378758 C85.5051315,13.8036072 85.2403585,14.4529058 84.7348827,14.8136273 Z M102.907939,15.8236473 L102.907939,8.12825652 C102.907939,4.64128256 99.3214681,4.01603207 97.3477058,4.01603207 C94.5074136,4.01603207 91.5226998,4.64128256 91.113505,8.99398797 L94.6518352,8.99398797 C94.7481164,8.17635271 95.0851002,6.99799599 96.9144408,6.99799599 C97.8531816,6.99799599 99.3214681,7.07014028 99.3214681,8.65731463 C99.3214681,9.47494991 98.6234302,9.69138277 98.0457437,9.78757515 L94.7481164,10.2925852 C92.4132998,10.6533066 90.6802402,12.0480962 90.6802402,14.8376753 C90.6802402,17.771543 92.8224944,18.997996 94.9166083,18.997996 C97.3958463,18.997996 98.59936,17.8196392 99.4418196,16.9298597 C99.5140303,17.747495 99.5862412,17.9398797 99.7788034,18.6132264 L103.726328,18.6132264 L103.726328,18.0601203 C103.268993,17.8677355 102.907939,17.5070141 102.907939,15.8236473 Z M99.2973979,13.490982 C99.2973979,15.2224449 97.6606194,16.3046092 96.0238408,16.3046092 C95.3258029,16.3046092 94.3148514,15.8957916 94.3148514,14.5971944 C94.3148514,13.0581162 95.4461543,12.6973948 96.7940896,12.4569138 C98.3105167,12.2164329 98.9122736,11.9759519 99.2733276,11.6873747 L99.2973979,13.490982 Z"/>
</svg>