<svg xmlns="http://www.w3.org/2000/svg" width="118" height="24" viewBox="0 0 118 24"><path fill="#1A75BC" d="M26.02 4.377c-1.204-.433-2.551-.553-4.044-.361-1.492.216-2.72.866-3.659 1.948a6.112 6.112 0 0 0-1.275 2.453 11.38 11.38 0 0 0-.41 2.958c0 1.202.17 2.356.482 3.463.313 1.13.866 1.996 1.637 2.645.722.673 1.709 1.13 2.936 1.395a7.437 7.437 0 0 0 3.635-.096c1.348-.289 2.455-1.035 3.346-2.237.409-.577.722-1.299.987-2.14.24-.842.385-1.852.385-3.006 0-1.611-.313-3.006-.939-4.209-.674-1.322-1.685-2.26-3.081-2.813zm-.433 10.268c-.434.674-.939 1.082-1.493 1.227-.553.144-1.131.144-1.66-.048-.554-.217-.94-.433-1.156-.722-.553-.673-.866-1.803-.939-3.463-.072-1.659.265-2.91 1.035-3.751.241-.24.674-.481 1.204-.625a2.919 2.919 0 0 1 1.637.024c.553.192 1.035.6 1.444 1.274.41.673.626 1.635.626 2.958-.024 1.419-.265 2.477-.698 3.126zm25.13-9.45a8.192 8.192 0 0 0-4.43-1.275c-.818.048-1.589.168-2.335.36a5.374 5.374 0 0 0-1.95 1.01c-.673-.553-1.395-.913-2.19-1.082a10.521 10.521 0 0 0-2.455-.264c-1.589.072-3.009.529-4.284 1.37-1.3.842-1.95 2.502-1.95 4.979v8.513h3.827V9.499c0-.866.24-1.515.77-1.9a2.733 2.733 0 0 1 1.757-.601c.674 0 1.252.216 1.782.601s.794 1.034.794 1.9v9.307h3.779V9.499c0-.866.265-1.515.794-1.9a2.846 2.846 0 0 1 1.781-.601c.674 0 1.252.216 1.782.601s.794 1.034.794 1.9v7.43c0 .554.193.987.505 1.348.362.36.795.505 1.348.505h1.902v-8.538c0-2.5-.698-4.208-2.022-5.05zM11.65 6.997H3.875V0H1.974A1.89 1.89 0 0 0 .578.577 1.925 1.925 0 0 0 0 1.972v16.834h3.875v-8.393h7.775v8.369h3.948V.024H11.65v6.974zm48.622-3.054c-2.07 0-3.707.673-4.862 2.02-1.132 1.299-1.685 3.126-1.685 5.459 0 2.429.578 4.329 1.757 5.627 1.155 1.347 2.792 2.02 4.862 2.02 1.71 0 3.13-.409 4.26-1.274 1.132-.794 1.902-1.972 2.311-3.487h-2.744c-.433 0-.77.096-1.01.264-.241.193-.362.313-.41.433l-.289.289a.675.675 0 0 1-.288.192c-.434.24-.963.385-1.59.385-.938 0-1.66-.289-2.141-.866-.506-.553-.77-1.395-.819-2.525h9.436c.024-.072.048-.216.048-.385v-.601c0-2.405-.578-4.28-1.757-5.627-1.204-1.275-2.913-1.924-5.079-1.924zm-2.696 6.132c.024-.938.313-1.683.818-2.188.506-.505 1.156-.77 1.974-.77.867 0 1.54.24 2.022.77.433.48.698 1.202.77 2.188h-5.584zm57.752-5.82c-.939 0-1.54.433-1.757 1.3l-2.575 8.945-2.961-10.269h-4.188l5.103 14.477c.24.77.192 1.323-.241 1.66-.433.36-.987.505-1.71.505h-1.034v3.006c.096 0 .24.024.41.024.168.024.288.048.408.096h.77c1.493 0 2.576-.216 3.226-.673.674-.505 1.203-1.371 1.637-2.573L118 4.184l-2.672.073zm-28.74 4.401c.722-.36 1.3-.865 1.685-1.467.41-.673.602-1.443.602-2.404 0-1.491-.506-2.67-1.54-3.56C86.323.433 84.83.024 82.904.024H76.02a1.89 1.89 0 0 0-1.396.577 1.925 1.925 0 0 0-.577 1.395V18.83h8.617c2.19 0 3.875-.505 5.103-1.467 1.155-1.01 1.757-2.43 1.757-4.257 0-1.13-.24-2.044-.698-2.741-.554-.746-1.3-1.323-2.239-1.708zm-8.81-5.362h4.381c1.06 0 1.757.144 2.143.432.433.313.674.842.674 1.54 0 .697-.217 1.202-.674 1.539-.434.312-1.132.48-2.07.48h-4.43V3.296h-.023zm6.957 11.519c-.554.408-1.348.6-2.359.6h-4.597v-4.929h4.549c1.131 0 1.925.192 2.407.553.505.409.77 1.034.77 1.9 0 .866-.265 1.515-.77 1.876zm18.173 1.01V8.128c0-3.487-3.587-4.112-5.56-4.112-2.84 0-5.825.625-6.234 4.978h3.538c.096-.818.433-1.996 2.262-1.996.94 0 2.407.072 2.407 1.66 0 .817-.698 1.033-1.275 1.13l-3.298.505c-2.335.36-4.068 1.755-4.068 4.545 0 2.934 2.142 4.16 4.237 4.16 2.479 0 3.682-1.178 4.525-2.068.072.817.144 1.01.337 1.683h3.947v-.553c-.457-.192-.818-.553-.818-2.236zm-3.61-2.333c0 1.731-1.637 2.814-3.274 2.814-.698 0-1.71-.41-1.71-1.708 0-1.539 1.132-1.9 2.48-2.14 1.517-.24 2.118-.481 2.48-.77l.023 1.804z"/></svg>